<?xml version="1.0" encoding="utf-8"?>
<!-- Generator: Adobe Illustrator 25.1.0, SVG Export Plug-In . SVG Version: 6.00 Build 0)  -->
<svg version="1.1" id="Layer_1" xmlns="http://www.w3.org/2000/svg" xmlns:xlink="http://www.w3.org/1999/xlink" x="0px" y="0px"
	 viewBox="0 0 95.3 131.1" style="enable-background:new 0 0 95.3 131.1;" xml:space="preserve">
<style type="text/css">
	.st0{fill:#5F6062;}
	.st1{fill:#3D3D3E;}
	.st2{opacity:0.2;fill:#A52714;enable-background:new    ;}
</style>
<g id="Layer_1-2">
	<path class="st0" d="M10,99.6l12.7-87.5c0.2-1.4,1.5-2.3,2.7-2.1c0.7,0.1,1.3,0.6,1.7,1.3l13.2,26.4L45.6,27c0.6-1.2,2.1-1.7,3.2-1
		c0.4,0.2,0.7,0.6,0.9,1l35.6,72.6L10,99.6z"/>
	<path class="st1" d="M54,65.5L40.3,37.7L10,99.6L54,65.5z"/>
	<path d="M85.3,99.6l-9.7-64.8c-0.3-1.4-1.5-2.3-2.8-2c-0.4,0.1-0.8,0.3-1.2,0.6L10,99.6l34.1,20.5c2.1,1.3,4.7,1.3,6.9,0
		C51,120.1,85.3,99.6,85.3,99.6z"/>
	<path class="st2" d="M51,119.5c-2.1,1.3-4.7,1.3-6.9,0l-34-20.4L10,99.6l34.1,20.5c2.1,1.3,4.7,1.3,6.9,0l34.4-20.5L85.2,99
		L51,119.5z"/>
</g>
</svg>
