<svg xmlns="http://www.w3.org/2000/svg" viewBox="0 0 158 158"><defs><style>.cls-1,.cls-5{fill:#fff;}.cls-2{fill:#67686b;}.cls-3{fill:#231f20;}.cls-4{fill:#d1d3d4;}.cls-5{fill-opacity:0.2;}</style></defs><g id="Layer_2" data-name="Layer 2"><g id="Layer_1-2" data-name="Layer 1"><rect class="cls-1" width="158" height="158"/><path class="cls-2" d="M31.36,119.22,47.49,16a3,3,0,0,1,5.57-1L69.75,46.16,76.4,33.5a3,3,0,0,1,5.27,0l45,85.72Z"/><path class="cls-3" d="M87.09,79,69.74,46.14,31.36,119.22Z"/><path class="cls-4" d="M126.69,119.22,114.34,42.76a3,3,0,0,0-5-1.61L31.36,119.22,74.48,143.4a9,9,0,0,0,8.72,0l43.49-24.18Z"/><path class="cls-5" d="M114.34,42.76a3,3,0,0,0-5-1.61L93.83,56.65,81.66,33.5a3,3,0,0,0-5.27,0L69.74,46.16,53.06,15a3,3,0,0,0-5.58,1L31.36,119.22h-.05l.05.06.42.2,77.49-77.57a3,3,0,0,1,5,1.61l12.25,75.77.12-.07L114.34,42.76ZM31.5,119.07l16-102.34a3,3,0,0,1,5.57-1L69.75,46.89,76.4,34.23a3,3,0,0,1,5.27,0L93.59,56.89,31.5,119.07Z"/></g></g></svg>