<svg xmlns="http://www.w3.org/2000/svg" viewBox="0 0 126.79 90.03"><g id="Layer_2" data-name="Layer 2"><g id="Layer_1-2" data-name="Layer 1"><path d="M102.76,36.43l-4.52-1.94c-7.76-3.36-11.12-5.55-11.12-11,0-4.38,3.36-7.74,8.66-7.74s8.53,2.19,11.63,7.74l14.08-9C115.53,4,107.27,0,95.78,0,79.63,0,69.3,10.32,69.3,23.88,69.3,38.6,78,45.56,91,51.12l4.52,1.94c8.25,3.61,13.16,5.8,13.16,12,0,5.18-4.78,8.92-12.27,8.92-8.92,0-14-4.65-17.84-11L63.89,71.54C69.2,82,80.05,90,96.84,90c17.17,0,30-8.92,30-25.2C126.79,49.73,118.12,43,102.76,36.43ZM36,1V62.51c0,9-3.75,11.36-9.69,11.36-6.21,0-8.79-4.26-11.63-9.3L0,73.48C4.26,82.5,12.65,90,27.12,90c16,0,27-8.52,27-27.24V1Z"/></g></g></svg>