<svg xmlns="http://www.w3.org/2000/svg" viewBox="0 0 151.21 134.84"><g id="Layer_2" data-name="Layer 2"><g id="Layer_1-2" data-name="Layer 1"><circle cx="75.6" cy="67.42" r="13.48"/><path d="M119.52,42.11c-2-.58-4.18-1.13-6.37-1.63A153.49,153.49,0,0,0,93,37.31c-2.8-.26-5.66-.45-8.57-.59s-5.83-.2-8.82-.2-5.92.07-8.8.2-5.78.33-8.58.59a153.49,153.49,0,0,0-20.16,3.17c-2.2.5-4.32,1.05-6.37,1.63C12.39,47.66,0,56.84,0,67.42S12.41,87.2,31.74,92.75c2,.58,4.16,1.13,6.35,1.63a154.74,154.74,0,0,0,20.13,3.16c2.8.25,5.66.45,8.57.58s5.83.2,8.81.2,5.93-.06,8.81-.2,5.78-.33,8.57-.59a153.53,153.53,0,0,0,20.14-3.15c2.18-.5,4.3-1,6.34-1.63C138.79,87.2,151.21,78,151.21,67.42S138.82,47.66,119.52,42.11ZM117.7,86.43q-3,.87-6.37,1.62c-4.2,1-8.73,1.74-13.55,2.35-2.72.34-5.53.63-8.43.84-4.4.33-9,.51-13.75.51s-9.35-.18-13.75-.51c-2.89-.21-5.71-.5-8.43-.84-4.81-.61-9.34-1.4-13.55-2.35-2.21-.5-4.34-1-6.37-1.62-16.81-4.79-26.92-12.14-26.92-19s10.1-14.2,26.89-19q3-.87,6.38-1.62c4.2-.95,8.74-1.75,13.57-2.36,2.72-.34,5.54-.62,8.43-.84q6.6-.49,13.75-.5c4.76,0,9.36.17,13.76.5q4.33.33,8.42.84c4.83.61,9.37,1.41,13.58,2.36,2.22.5,4.35,1,6.37,1.62,16.8,4.8,26.9,12.14,26.9,19S134.52,81.64,117.7,86.43Z"/><path d="M119.46,92.75q-.76-3.09-1.76-6.32a155.31,155.31,0,0,0-7.33-19c-1.18-2.55-2.43-5.12-3.78-7.71s-2.74-5.15-4.23-7.74-3-5.08-4.58-7.53S94.62,39.62,93,37.31A157.09,157.09,0,0,0,80.21,21.44c-1.51-1.65-3-3.21-4.57-4.7Q72.33,13.52,69,10.83C56.54.68,45.45-2.47,37.8,2S27.34,17.54,29.88,33.42c.45,2.81,1.06,5.71,1.81,8.69.53,2.07,1.12,4.18,1.78,6.31a156.41,156.41,0,0,0,7.37,19q1.77,3.85,3.77,7.72t4.23,7.73q2.23,3.85,4.58,7.53t4.8,7.14A156.55,156.55,0,0,0,71,113.44q2.28,2.46,4.58,4.7c2.2,2.13,4.39,4.1,6.59,5.88,8.8,7.15,16.9,10.82,23.6,10.82a15,15,0,0,0,7.62-2C122.58,127.6,124.33,112.26,119.46,92.75Zm-9.34,34.45c-5,2.92-13.71-.1-23.79-8.28-2-1.66-4.09-3.5-6.14-5.48-1.54-1.49-3.07-3.07-4.59-4.72-3-3.25-5.93-6.79-8.81-10.6-1.68-2.21-3.32-4.51-4.94-6.88-2.53-3.71-5-7.61-7.31-11.66s-4.49-8.11-6.44-12.16c-1.25-2.58-2.41-5.16-3.49-7.71C42.76,55.32,41.16,51,39.85,46.8q-1-3.22-1.79-6.32c-.71-2.78-1.27-5.49-1.69-8.1-2-12.8-.33-21.82,4.72-24.74a8.77,8.77,0,0,1,4.42-1.08c5,0,11.81,3.23,19.36,9.37,2,1.66,4.11,3.51,6.17,5.5q2.29,2.24,4.58,4.72c1.93,2.09,3.85,4.32,5.74,6.66,1,1.27,2,2.58,3.06,3.91,1.67,2.21,3.32,4.51,4.94,6.88,2.52,3.72,5,7.62,7.31,11.66s4.52,8.19,6.44,12.16q1.89,3.93,3.48,7.72c1.88,4.47,3.46,8.8,4.74,12.91.68,2.17,1.27,4.28,1.79,6.33C117.37,111.34,116.07,123.76,110.12,127.2Z"/><path d="M113.41,2c-9.18-5.3-23.32.84-37.77,14.79-1.53,1.48-3.07,3-4.6,4.69A154.78,154.78,0,0,0,58.22,37.31C56.6,39.6,55,42,53.42,44.44s-3.08,5-4.58,7.53-2.9,5.17-4.23,7.74-2.6,5.16-3.77,7.71a153.83,153.83,0,0,0-7.34,19c-.66,2.15-1.24,4.26-1.76,6.32-4.86,19.51-3.11,34.85,6.06,40.14a15,15,0,0,0,7.62,2c6.7,0,14.8-3.67,23.6-10.82,2.19-1.78,4.39-3.75,6.58-5.88q2.31-2.23,4.59-4.7,3.12-3.37,6.17-7.15c2.25-2.77,4.47-5.7,6.62-8.76q2.46-3.45,4.8-7.13t4.58-7.53q2.22-3.86,4.23-7.73t3.78-7.72a156.3,156.3,0,0,0,7.36-19c.67-2.13,1.26-4.24,1.79-6.31.75-3,1.36-5.88,1.81-8.69C123.87,17.54,121.06,6.37,113.41,2Zm-2,44.85q-1.27,4.08-2.91,8.31c-.58,1.52-1.2,3.06-1.86,4.6-1.07,2.56-2.24,5.13-3.48,7.71-2,4-4.11,8.12-6.44,12.16s-4.79,8-7.32,11.66c-1.61,2.37-3.26,4.67-4.94,6.88-2.87,3.81-5.83,7.35-8.81,10.6-1.52,1.65-3,3.23-4.58,4.72-2,2-4.1,3.82-6.15,5.48-10.06,8.18-18.73,11.19-23.78,8.28-6-3.44-7.25-15.86-3-32.82.51-2,1.11-4.16,1.78-6.33,1.28-4.11,2.86-8.43,4.74-12.91,1.07-2.52,2.23-5.1,3.49-7.72,1.91-4,4.06-8,6.44-12.16s4.83-8,7.31-11.66q2.46-3.6,4.95-6.88c2.94-3.87,5.89-7.41,8.82-10.57,1.54-1.68,3.08-3.25,4.59-4.71,10-9.66,19.23-14.85,25.59-14.85a8.56,8.56,0,0,1,4.32,1c5,2.92,6.77,11.94,4.71,24.74-.42,2.61-1,5.32-1.68,8.1Q112.37,43.57,111.36,46.8Z"/></g></g></svg>