<svg xmlns="http://www.w3.org/2000/svg" viewBox="0 0 918 551.23"><defs><style>.cls-1{fill:#231f20;}</style></defs><g id="Layer_2" data-name="Layer 2"><g id="Layer_1-2" data-name="Layer 1"><path class="cls-1" d="M449,.18c-161.5,5.13-209.5,120.5-220.5,183,14.33-23.17,59.5-74,126-74,77.5,0,136.5,86.5,172.5,113.5,43.74,32.8,131.62,76.12,247,41,92-28,134.67-125.67,144-172-44.5,60.5-112,96.84-195.5,54C665,116.18,622-5.32,449,.18Z"/><path class="cls-1" d="M220.5,274.68C59,279.81,11,395.18,0,457.68c14.33-23.17,59.5-74,126-74,77.5,0,136.5,86.5,172.5,113.5,43.74,32.8,131.62,76.12,247,41,92-28,134.67-125.67,144-172-44.5,60.5-112,96.84-195.5,54C436.5,390.68,393.5,269.18,220.5,274.68Z"/></g></g></svg>