<svg xmlns="http://www.w3.org/2000/svg" viewBox="0 0 352 232"><defs><style>.cls-1{fill:#231f20;fill-rule:evenodd;}</style></defs><g id="Layer_2" data-name="Layer 2"><g id="Layer_1-2" data-name="Layer 1"><path class="cls-1" d="M198.94,169.42v50.07a106,106,0,0,0,28.87,9.38A190,190,0,0,0,263,232a164.57,164.57,0,0,0,34.2-3.44,84.14,84.14,0,0,0,28.4-11.34,57.84,57.84,0,0,0,19.33-20.65Q352,183.82,352,165q0-13.6-4.07-23.85A55.64,55.64,0,0,0,336.19,123a85.66,85.66,0,0,0-18.39-14.31,194.59,194.59,0,0,0-24.18-12q-9.86-4.07-17.68-7.9A89.77,89.77,0,0,1,262.64,81a34,34,0,0,1-8.45-8.45,17.72,17.72,0,0,1-3-10.09,16.92,16.92,0,0,1,2.66-9.31A23.2,23.2,0,0,1,261.38,46a40.1,40.1,0,0,1,11.9-4.61,68.68,68.68,0,0,1,15.65-1.64,100,100,0,0,1,13.22.93,103.84,103.84,0,0,1,14,2.9,96,96,0,0,1,13.7,4.93,75.45,75.45,0,0,1,12.28,6.88V8.6a122.48,122.48,0,0,0-25-6.49A203.22,203.22,0,0,0,286.11,0a144.65,144.65,0,0,0-33.8,3.83,86.26,86.26,0,0,0-28.1,12A59.83,59.83,0,0,0,205,36.53q-7,12.59-7,30.11,0,22.38,12.91,38.18t39.21,26.75q10.32,4.22,19.25,8.29a108.29,108.29,0,0,1,15.41,8.44A40.56,40.56,0,0,1,295,157.85a19.39,19.39,0,0,1,3.76,11.73,17.94,17.94,0,0,1-2.35,9,20.77,20.77,0,0,1-7.12,7.19,38.74,38.74,0,0,1-11.89,4.77,71.44,71.44,0,0,1-16.67,1.72,95,95,0,0,1-32.24-5.71,96,96,0,0,1-29.58-17.13ZM114.78,46.08H179V5H0V46.08H63.91V229h50.87Z"/></g></g></svg>